<svg width="256" height="52" viewBox="0 0 256 52" fill="none" xmlns="http://www.w3.org/2000/svg">
<path d="M40.6564 43.4442C39.6366 44.728 38.3768 45.8438 36.8891 46.7916C35.3893 47.7395 33.7935 48.5314 32.0778 49.1673C30.3621 49.7912 28.6104 50.2711 26.8107 50.583C25.011 50.895 23.2952 51.051 21.6755 51.051C18.532 51.051 15.6405 50.487 13.0009 49.3592C10.3613 48.2314 8.08165 46.6717 6.16196 44.692C4.24227 42.7123 2.74251 40.3727 1.66268 37.6851C0.582853 34.9975 0.0429688 32.106 0.0429688 29.0105C0.0429688 26.6469 0.318916 24.3312 0.858829 22.0756C1.39874 19.8079 2.17862 17.6723 3.18646 15.6686C4.1943 13.6649 5.43009 11.8172 6.88185 10.1495C8.33362 8.46976 9.97735 7.01799 11.8251 5.80618C13.6608 4.59437 15.6765 3.64652 17.8721 2.97463C20.0557 2.30274 22.3954 1.9668 24.891 1.9668C25.8268 1.9668 26.8227 2.00279 27.8785 2.07478C28.9343 2.14676 29.9902 2.27874 31.046 2.47071C32.1018 2.65069 33.1217 2.91464 34.1175 3.23859C35.1134 3.56254 36.0252 3.97047 36.8531 4.4384L35.9412 16.8564C34.7294 16.4005 33.4816 16.0885 32.1858 15.9326C30.89 15.7646 29.6302 15.6926 28.3944 15.6926C26.6667 15.6926 25.047 15.9566 23.5352 16.4845C22.0234 17.0124 20.7156 17.7803 19.5998 18.7761C18.484 19.772 17.5962 20.9838 16.9483 22.4115C16.3004 23.8393 15.9764 25.459 15.9764 27.2588C15.9764 28.3866 16.1324 29.4784 16.4324 30.5222C16.7323 31.5781 17.2002 32.5019 17.8121 33.3178C18.424 34.1337 19.2039 34.7816 20.1157 35.2855C21.0396 35.7894 22.1074 36.0294 23.3192 36.0294C24.1471 36.0294 24.999 35.9214 25.8748 35.7054C26.7507 35.4894 27.5066 35.1175 28.1305 34.6016L28.2624 32.07L20.4637 31.938L20.8596 22.1836C24.0871 22.0756 27.3146 21.9796 30.5421 21.9076C33.7696 21.8356 37.021 21.7276 40.2965 21.5957L40.6805 43.4322L40.6564 43.4442Z" fill="black" style="fill:black;fill-opacity:1;"/>
<path d="M83.2952 27.1292C83.2952 29.0969 83.0672 31.0046 82.6113 32.8283C82.1553 34.664 81.4955 36.3797 80.6436 37.9754C79.7917 39.5832 78.7479 41.0469 77.5241 42.3787C76.3003 43.7105 74.9205 44.8503 73.3968 45.8102C71.873 46.758 70.2053 47.5019 68.4055 48.0418C66.6058 48.5697 64.6982 48.8337 62.6825 48.8337C60.6668 48.8337 58.8791 48.5817 57.1034 48.0898C55.3397 47.5859 53.6839 46.89 52.1482 45.9902C50.6124 45.0903 49.2206 44.0105 47.9728 42.7387C46.725 41.4669 45.6692 40.0631 44.7933 38.5154C43.9175 36.9676 43.2336 35.2999 42.7417 33.5242C42.2497 31.7484 42.0098 29.9007 42.0098 27.969C42.0098 26.0373 42.2377 24.2376 42.6937 22.4259C43.1496 20.6142 43.7975 18.9105 44.6614 17.3027C45.5132 15.695 46.5571 14.2312 47.7689 12.8874C48.9807 11.5437 50.3364 10.3918 51.8482 9.408C53.348 8.43615 54.9797 7.68028 56.7434 7.12837C58.5071 6.57646 60.3548 6.3125 62.2985 6.3125C65.442 6.3125 68.3096 6.80441 70.9012 7.77626C73.4928 8.7481 75.7004 10.1399 77.5361 11.9516C79.3718 13.7633 80.7876 15.947 81.7954 18.5145C82.8032 21.0821 83.3072 23.9497 83.3072 27.1172L83.2952 27.1292ZM68.8615 27.981C68.8615 27.0452 68.7295 26.1453 68.4536 25.2695C68.1776 24.3936 67.7937 23.6137 67.2658 22.9298C66.7498 22.246 66.1019 21.694 65.334 21.2741C64.5662 20.8542 63.6783 20.6382 62.6825 20.6382C61.6866 20.6382 60.7508 20.8182 59.9469 21.1901C59.143 21.5621 58.4592 22.066 57.8832 22.7019C57.3073 23.3378 56.8754 24.0937 56.5634 24.9455C56.2635 25.7974 56.1075 26.7092 56.1075 27.6571C56.1075 28.6049 56.2395 29.4808 56.5035 30.3927C56.7674 31.3045 57.1514 32.1204 57.6673 32.8643C58.1832 33.6081 58.8311 34.196 59.599 34.652C60.3668 35.1079 61.2667 35.3359 62.2745 35.3359C63.2824 35.3359 64.2062 35.1319 65.0221 34.736C65.838 34.34 66.5218 33.7881 67.0858 33.1162C67.6497 32.4323 68.0816 31.6524 68.3816 30.7646C68.6815 29.8767 68.8375 28.9529 68.8375 28.005L68.8615 27.981Z" fill="black" style="fill:black;fill-opacity:1;"/>
<path d="M119.472 3.60352L119.149 17.3893L109.466 17.7852L106.994 48.5963L93.2807 49.3162L93.3406 18.5051L83.6582 19.021L84.0541 3.6755L119.484 3.61552L119.472 3.60352Z" fill="black" style="fill:black;fill-opacity:1;"/>
<path d="M152.459 4.38314L150.635 18.0969C150.011 17.929 149.376 17.809 148.752 17.737C148.128 17.677 147.492 17.641 146.868 17.641C145.26 17.641 143.736 17.857 142.285 18.2769C140.833 18.6968 139.549 19.3447 138.433 20.2086C137.317 21.0725 136.43 22.1523 135.77 23.4601C135.11 24.7559 134.774 26.2916 134.774 28.0434C134.774 29.1712 134.954 30.143 135.314 30.9709C135.674 31.7988 136.178 32.4706 136.826 33.0226C137.473 33.5625 138.241 33.9704 139.129 34.2224C140.017 34.4743 140.989 34.6183 142.057 34.6183C142.861 34.6183 143.688 34.5343 144.564 34.3543C145.428 34.1864 146.292 33.9584 147.132 33.6705C147.972 33.3945 148.8 33.0706 149.603 32.6986C150.407 32.3267 151.139 31.9547 151.811 31.5588L150.515 46.8324C149.675 47.2643 148.752 47.6482 147.768 47.9842C146.784 48.3201 145.764 48.6081 144.732 48.86C143.688 49.112 142.657 49.304 141.613 49.4239C140.569 49.5559 139.573 49.6159 138.625 49.6159C135.878 49.6159 133.31 49.112 130.922 48.0922C128.535 47.0723 126.471 45.6805 124.719 43.9048C122.968 42.1291 121.588 40.0294 120.58 37.6178C119.572 35.2062 119.068 32.6026 119.068 29.8071C119.068 26.0997 119.596 22.6082 120.664 19.3207C121.72 16.0333 123.292 13.1657 125.343 10.6941C127.395 8.22252 129.951 6.27883 132.998 4.83906C136.046 3.41129 139.549 2.69141 143.508 2.69141C145.008 2.69141 146.532 2.81139 148.104 3.05135C149.675 3.29131 151.127 3.73524 152.471 4.38314H152.459Z" fill="black" style="fill:black;fill-opacity:1;"/>
<path d="M193.08 50.0821L176.834 50.862L176.702 35.8524H169.227L168.771 50.0821H154.218L155.454 4.38145L170.919 5.10133L169.947 28.4376H177.158L177.218 3.34961L192.036 3.74555L193.08 50.0941V50.0821Z" fill="black" style="fill:black;fill-opacity:1;"/>
<path d="M238.001 47.286L221.876 49.3617L219.92 42.0189H212.506L210.886 49.3617L194.316 47.742L207.25 4.45287L225.319 3.54102L237.989 47.286H238.001ZM218.769 32.0725L216.297 20.7583L213.897 32.0725H218.769Z" fill="black" style="fill:black;fill-opacity:1;"/>
<path d="M240.368 12.3243C241.028 12.9602 241.795 13.4521 242.659 13.824C243.523 14.196 244.447 14.364 245.431 14.352C246.427 14.328 247.351 14.124 248.202 13.7161C249.054 13.3081 249.798 12.7802 250.434 12.1203C251.07 11.4604 251.562 10.6805 251.922 9.79268C252.282 8.90482 252.45 7.96898 252.426 6.99713C252.402 6.00129 252.198 5.07743 251.814 4.22557C251.418 3.37371 250.902 2.62982 250.242 1.99393C249.582 1.35803 248.826 0.866109 247.951 0.506167C247.075 0.146224 246.151 -0.0217465 245.155 0.00224967C244.183 0.0262458 243.271 0.230216 242.407 0.614154C241.556 1.01009 240.812 1.52601 240.176 2.1859C239.54 2.84579 239.036 3.61367 238.676 4.47753C238.304 5.34139 238.136 6.27724 238.148 7.27308C238.172 8.24493 238.376 9.16879 238.784 10.0446C239.192 10.9205 239.72 11.6764 240.38 12.3123L240.368 12.3243Z" fill="black" style="fill:black;fill-opacity:1;"/>
<path d="M240.415 17.216L239.515 51.1585L255.1 49.5748L251.489 17L240.415 17.216Z" fill="black" style="fill:black;fill-opacity:1;"/>
</svg>
